<?xml version="1.0" encoding="UTF-8" standalone="no"?>
<svg
   width="128"
   height="128.00024"
   viewBox="0 0 33.866666 33.866732"
   version="1.1"
   id="svg8"
   inkscape:version="1.1.2 (0a00cf5339, 2022-02-04)"
   sodipodi:docname="icon_2.svg"
   inkscape:export-filename="/home/antgon/python/muris daq/ui/icon_2.png"
   inkscape:export-xdpi="96"
   inkscape:export-ydpi="96"
   xmlns:inkscape="http://www.inkscape.org/namespaces/inkscape"
   xmlns:sodipodi="http://sodipodi.sourceforge.net/DTD/sodipodi-0.dtd"
   xmlns="http://www.w3.org/2000/svg"
   xmlns:svg="http://www.w3.org/2000/svg"
   xmlns:rdf="http://www.w3.org/1999/02/22-rdf-syntax-ns#"
   xmlns:cc="http://creativecommons.org/ns#"
   xmlns:dc="http://purl.org/dc/elements/1.1/">
  <defs
     id="defs2" />
  <sodipodi:namedview
     id="base"
     pagecolor="#ffffff"
     bordercolor="#666666"
     borderopacity="1.0"
     inkscape:pageopacity="0.0"
     inkscape:pageshadow="2"
     inkscape:zoom="0.70000001"
     inkscape:cx="65"
     inkscape:cy="249.28571"
     inkscape:document-units="mm"
     inkscape:current-layer="layer1"
     inkscape:document-rotation="0"
     showgrid="false"
     inkscape:snap-global="false"
     inkscape:window-width="1920"
     inkscape:window-height="1011"
     inkscape:window-x="0"
     inkscape:window-y="0"
     inkscape:window-maximized="1"
     inkscape:snap-bbox="true"
     inkscape:snap-text-baseline="true"
     units="px"
     inkscape:pagecheckerboard="0" />
  <metadata
     id="metadata5">
    <rdf:RDF>
      <cc:Work
         rdf:about="">
        <dc:format>image/svg+xml</dc:format>
        <dc:type
           rdf:resource="http://purl.org/dc/dcmitype/StillImage" />
      </cc:Work>
    </rdf:RDF>
  </metadata>
  <g
     inkscape:label="Layer 1"
     inkscape:groupmode="layer"
     id="layer1"
     transform="translate(-40.13522,-175.87281)">
    <rect
       style="fill:#017b56;stroke-width:0.600001"
       id="rect1326"
       width="33.866669"
       height="33.866669"
       x="40.13522"
       y="175.87288"
       rx="6.6004324"
       ry="6.6004324" />
    <g
       id="g995"
       transform="matrix(1.2021524,0,0,1.2021524,-13.876807,-42.399308)"
       style="stroke-width:0.831841">
      <g
         id="g1065"
         style="stroke-width:0.831841">
        <path
           id="path1288"
           style="fill:#bcbd22;fill-opacity:1;stroke:none;stroke-width:0.499105"
           d="m 51.886941,209.73951 v -2.42619 c 0,-0.71363 0.574518,-1.28814 1.288158,-1.28814 0.713638,0 1.288155,0.57453 1.288155,1.28814 v 2.42619"
           sodipodi:nodetypes="csssc" />
        <circle
           style="fill:#e6e6e6;fill-opacity:1;stroke:none;stroke-width:0.499105"
           id="circle1290"
           cx="53.175087"
           cy="207.32056"
           r="0.95525658" />
        <path
           id="path1292"
           style="fill:#e6e6e6;fill-opacity:1;stroke:none;stroke-width:0.499105"
           d="m 54.121516,209.73951 a 0.94641889,0.94641889 0 0 0 -0.473209,-0.81962 0.94641889,0.94641889 0 0 0 -0.946418,0 0.94641889,0.94641889 0 0 0 -0.473212,0.81962 h 0.946422 z" />
      </g>
      <g
         id="g1070"
         style="stroke-width:0.831841">
        <path
           id="path1294"
           style="fill:#bcbd22;fill-opacity:1;stroke:none;stroke-width:0.499105"
           d="m 55.780397,209.73951 v -2.42619 c 0,-0.71363 0.574518,-1.28814 1.288157,-1.28814 0.713639,0 1.288157,0.57453 1.288157,1.28814 v 2.42619"
           sodipodi:nodetypes="csssc" />
        <circle
           style="fill:#e6e6e6;fill-opacity:1;stroke:none;stroke-width:0.499105"
           id="circle1296"
           cx="57.068542"
           cy="207.32056"
           r="0.95525658" />
        <path
           id="path1298"
           style="fill:#e6e6e6;fill-opacity:1;stroke:none;stroke-width:0.499105"
           d="m 58.014973,209.73951 a 0.94641889,0.94641889 0 0 0 -0.473209,-0.81962 0.94641889,0.94641889 0 0 0 -0.946419,0 0.94641889,0.94641889 0 0 0 -0.473211,0.81962 h 0.94642 z" />
      </g>
      <g
         id="g1075"
         style="stroke-width:0.831841">
        <path
           id="path1300"
           style="fill:#bcbd22;fill-opacity:1;stroke:none;stroke-width:0.499105"
           d="m 59.673852,209.73951 v -2.42619 c 0,-0.71363 0.574518,-1.28814 1.288156,-1.28814 0.71364,0 1.288154,0.57453 1.288154,1.28814 v 2.42619"
           sodipodi:nodetypes="csssc" />
        <circle
           style="fill:#e6e6e6;fill-opacity:1;stroke:none;stroke-width:0.499105"
           id="circle1302"
           cx="60.961998"
           cy="207.32056"
           r="0.95525658" />
        <path
           id="path1304"
           style="fill:#e6e6e6;fill-opacity:1;stroke:none;stroke-width:0.499105"
           d="m 61.908427,209.73951 a 0.94641889,0.94641889 0 0 0 -0.473209,-0.81962 0.94641889,0.94641889 0 0 0 -0.946418,0 0.94641889,0.94641889 0 0 0 -0.473212,0.81962 h 0.94642 z" />
      </g>
      <g
         id="g1080"
         style="stroke-width:0.831841">
        <path
           id="path1306"
           style="fill:#bcbd22;fill-opacity:1;stroke:none;stroke-width:0.499105"
           d="m 63.567299,209.73951 v -2.42619 c 0,-0.71363 0.574523,-1.28814 1.288159,-1.28814 0.713654,0 1.288161,0.57453 1.288161,1.28814 v 2.42619"
           sodipodi:nodetypes="csssc" />
        <circle
           style="fill:#e6e6e6;fill-opacity:1;stroke:none;stroke-width:0.499105"
           id="circle1308"
           cx="64.855461"
           cy="207.32056"
           r="0.95525658" />
        <path
           id="path1310"
           style="fill:#e6e6e6;fill-opacity:1;stroke:none;stroke-width:0.499105"
           d="m 65.801877,209.73951 a 0.94641889,0.94641889 0 0 0 -0.473209,-0.81962 0.94641889,0.94641889 0 0 0 -0.946419,0 0.94641889,0.94641889 0 0 0 -0.473209,0.81962 h 0.946418 z" />
      </g>
    </g>
    <g
       id="g1239"
       transform="matrix(-1.2021524,0,0,-1.2021524,128.01391,428.01173)"
       style="stroke-width:0.831841">
      <g
         id="g1213"
         style="stroke-width:0.831841">
        <path
           id="path1207"
           style="fill:#bcbd22;fill-opacity:1;stroke:none;stroke-width:0.499105"
           d="m 51.886941,209.73951 v -2.42619 c 0,-0.71363 0.574518,-1.28814 1.288158,-1.28814 0.713638,0 1.288155,0.57453 1.288155,1.28814 v 2.42619"
           sodipodi:nodetypes="csssc" />
        <circle
           style="fill:#e6e6e6;fill-opacity:1;stroke:none;stroke-width:0.499105"
           id="circle1209"
           cx="53.175087"
           cy="207.32056"
           r="0.95525658" />
        <path
           id="path1211"
           style="fill:#e6e6e6;fill-opacity:1;stroke:none;stroke-width:0.499105"
           d="m 54.121516,209.73951 a 0.94641889,0.94641889 0 0 0 -0.473209,-0.81962 0.94641889,0.94641889 0 0 0 -0.946418,0 0.94641889,0.94641889 0 0 0 -0.473212,0.81962 h 0.946422 z" />
      </g>
      <g
         id="g1221"
         style="stroke-width:0.831841">
        <path
           id="path1215"
           style="fill:#bcbd22;fill-opacity:1;stroke:none;stroke-width:0.499105"
           d="m 55.780397,209.73951 v -2.42619 c 0,-0.71363 0.574518,-1.28814 1.288157,-1.28814 0.713639,0 1.288157,0.57453 1.288157,1.28814 v 2.42619"
           sodipodi:nodetypes="csssc" />
        <circle
           style="fill:#e6e6e6;fill-opacity:1;stroke:none;stroke-width:0.499105"
           id="circle1217"
           cx="57.068542"
           cy="207.32056"
           r="0.95525658" />
        <path
           id="path1219"
           style="fill:#e6e6e6;fill-opacity:1;stroke:none;stroke-width:0.499105"
           d="m 58.014973,209.73951 a 0.94641889,0.94641889 0 0 0 -0.473209,-0.81962 0.94641889,0.94641889 0 0 0 -0.946419,0 0.94641889,0.94641889 0 0 0 -0.473211,0.81962 h 0.94642 z" />
      </g>
      <g
         id="g1229"
         style="stroke-width:0.831841">
        <path
           id="path1223"
           style="fill:#bcbd22;fill-opacity:1;stroke:none;stroke-width:0.499105"
           d="m 59.673852,209.73951 v -2.42619 c 0,-0.71363 0.574518,-1.28814 1.288156,-1.28814 0.71364,0 1.288154,0.57453 1.288154,1.28814 v 2.42619"
           sodipodi:nodetypes="csssc" />
        <circle
           style="fill:#e6e6e6;fill-opacity:1;stroke:none;stroke-width:0.499105"
           id="circle1225"
           cx="60.961998"
           cy="207.32056"
           r="0.95525658" />
        <path
           id="path1227"
           style="fill:#e6e6e6;fill-opacity:1;stroke:none;stroke-width:0.499105"
           d="m 61.908427,209.73951 a 0.94641889,0.94641889 0 0 0 -0.473209,-0.81962 0.94641889,0.94641889 0 0 0 -0.946418,0 0.94641889,0.94641889 0 0 0 -0.473212,0.81962 h 0.94642 z" />
      </g>
      <g
         id="g1237"
         style="stroke-width:0.831841">
        <path
           id="path1231"
           style="fill:#bcbd22;fill-opacity:1;stroke:none;stroke-width:0.499105"
           d="m 63.567299,209.73951 v -2.42619 c 0,-0.71363 0.574523,-1.28814 1.288159,-1.28814 0.713654,0 1.288161,0.57453 1.288161,1.28814 v 2.42619"
           sodipodi:nodetypes="csssc" />
        <circle
           style="fill:#e6e6e6;fill-opacity:1;stroke:none;stroke-width:0.499105"
           id="circle1233"
           cx="64.855461"
           cy="207.32056"
           r="0.95525658" />
        <path
           id="path1235"
           style="fill:#e6e6e6;fill-opacity:1;stroke:none;stroke-width:0.499105"
           d="m 65.801877,209.73951 a 0.94641889,0.94641889 0 0 0 -0.473209,-0.81962 0.94641889,0.94641889 0 0 0 -0.946419,0 0.94641889,0.94641889 0 0 0 -0.473209,0.81962 h 0.946418 z" />
      </g>
    </g>
    <path
       id="path2176"
       style="fill:none;stroke:#e6e6e6;stroke-width:1.05833;stroke-linecap:round;stroke-linejoin:round;stroke-miterlimit:10;stroke-dasharray:none;stroke-opacity:1"
       d="m 43.520899,192.80619 c 0.712051,-1.4102 1.3031,-2.94287 2.429776,-4.08676 0.468741,-0.52038 1.317514,-0.6107 1.830261,-0.10178 1.111537,1.01047 1.675712,2.45208 2.345866,3.76221 0.764108,1.51503 1.381794,3.15586 2.541891,4.42575 0.443628,0.53007 1.283171,0.74672 1.837423,0.25405 1.097884,-0.91728 1.646591,-2.29339 2.289129,-3.5334 0.806385,-1.58909 1.440489,-3.31379 2.633227,-4.66762 0.440025,-0.54637 1.28237,-0.81776 1.867105,-0.32548 1.132315,0.94141 1.689661,2.36028 2.349472,3.63547 0.800403,1.58141 1.434752,3.29748 2.636088,4.6331 0.443816,0.52201 1.272848,0.7552 1.830467,0.26745 1.081911,-0.88675 1.624301,-2.23139 2.254261,-3.44196 0.08434,-0.17286 0.16676,-0.34665 0.250344,-0.51988" />
  </g>
</svg>
